<svg width="25" height="20" viewBox="0 0 25 20" fill="none" xmlns="http://www.w3.org/2000/svg">
<path d="M24.7567 17.8934L22.6082 16.2332C23.2098 16.1785 23.7489 15.6981 23.7489 15.0184V4.97932C23.7489 3.98322 22.6121 3.40119 21.7801 3.97151L17.4988 6.92463V12.284L16.2488 11.3192V4.36604C16.2488 3.33479 15.4129 2.49885 14.3817 2.49885H4.83869L1.77619 0.131662C1.50276 -0.0792753 1.11213 -0.0324003 0.897287 0.241037L0.131662 1.22541C-0.0792753 1.49885 -0.0324003 1.88947 0.241037 2.10041L1.66682 3.20197L16.2488 14.4754L23.2215 19.866C23.4949 20.077 23.8856 20.0301 24.1004 19.7567L24.866 18.7684C25.0809 18.4988 25.0301 18.1043 24.7567 17.8934ZM1.24885 15.6317C1.24885 16.6629 2.08479 17.4988 3.11604 17.4988H14.3817C14.8192 17.4988 15.2176 17.3426 15.5379 17.0887L1.24885 6.04182V15.6317Z" fill="black"/>
</svg>
