<svg width="43" height="41" viewBox="0 0 43 41" fill="none" xmlns="http://www.w3.org/2000/svg">
<path d="M43 10.25V36.6071C43 39.0324 41.1943 41 38.9688 41H4.03125C1.80566 41 0 39.0324 0 36.6071V10.25C0 7.82478 1.80566 5.85714 4.03125 5.85714H11.4219L12.4549 2.84621C13.0428 1.13482 14.5461 0 16.2258 0H26.7658C28.4455 0 29.9488 1.13482 30.5367 2.84621L31.5781 5.85714H38.9688C41.1943 5.85714 43 7.82478 43 10.25ZM31.5781 23.4286C31.5781 17.3701 27.0598 12.4464 21.5 12.4464C15.9402 12.4464 11.4219 17.3701 11.4219 23.4286C11.4219 29.4871 15.9402 34.4107 21.5 34.4107C27.0598 34.4107 31.5781 29.4871 31.5781 23.4286ZM28.8906 23.4286C28.8906 27.8672 25.5732 31.4821 21.5 31.4821C17.4268 31.4821 14.1094 27.8672 14.1094 23.4286C14.1094 18.99 17.4268 15.375 21.5 15.375C25.5732 15.375 28.8906 18.99 28.8906 23.4286Z" fill="black"/>
</svg>
