<svg width="46" height="48" viewBox="0 0 46 48" fill="none" xmlns="http://www.w3.org/2000/svg">
<path d="M33.9646 27.2512C32.6601 26.497 31.6955 25.2339 31.2821 23.7386C30.761 21.8673 29.6719 20.223 28.1785 19.0529C26.6851 17.8828 24.8681 17.2501 23.0005 17.25C21.133 17.2499 19.3159 17.8823 17.8223 19.0522C16.3287 20.222 15.2394 21.8662 14.7181 23.7374C14.305 25.2331 13.3402 26.4968 12.0354 27.2512C10.2534 28.2633 8.91234 29.9514 8.28971 31.9664C7.66707 33.9813 7.81046 36.1689 8.69022 38.0766C9.56997 39.9843 11.1188 41.4661 13.0163 42.2156C14.9137 42.9651 17.0147 42.9249 18.8846 42.1033C21.5209 40.9708 24.4791 40.9708 27.1154 42.1033C28.9854 42.9256 31.0868 42.9663 32.9847 42.2169C34.8826 41.4676 36.4318 39.9856 37.3117 38.0775C38.1916 36.1695 38.3349 33.9815 37.7118 31.9663C37.0888 29.9511 35.7472 28.263 33.9646 27.2512ZM30.1875 38.25C29.706 38.2512 29.2292 38.1507 28.7858 37.9546C28.7779 37.951 28.7698 37.9475 28.7618 37.944C25.0716 36.3543 20.9284 36.3543 17.2382 37.944C17.2302 37.9475 17.2221 37.951 17.2142 37.9546C16.3635 38.33 15.407 38.3494 14.543 38.0088C13.679 37.6681 12.9737 36.9934 12.5736 36.1248C12.1735 35.2561 12.1091 34.26 12.3939 33.3432C12.6786 32.4263 13.2906 31.659 14.103 31.2004C14.1093 31.1967 14.1158 31.193 14.1221 31.1893C15.2632 30.5318 16.2688 29.6462 17.0817 28.583C17.8945 27.5197 18.4986 26.2998 18.8595 24.9929C19.1203 24.0574 19.665 23.2356 20.4117 22.6508C21.1585 22.066 22.0669 21.7499 23.0006 21.75C23.9342 21.7501 24.8426 22.0664 25.5892 22.6513C26.3359 23.2362 26.8804 24.0582 27.1411 24.9937C27.5019 26.3005 28.1059 27.5203 28.9187 28.5833C29.7314 29.6464 30.737 30.5319 31.8779 31.1893C31.8842 31.193 31.8907 31.1967 31.897 31.2004C32.6004 31.5974 33.1568 32.2279 33.4782 32.992C33.7996 33.7562 33.8676 34.6104 33.6714 35.4194C33.4752 36.2284 33.0261 36.946 32.3951 37.4587C31.7641 37.9714 30.9872 38.2498 30.1875 38.25ZM41.6875 19.5C41.6875 20.39 41.4346 21.26 40.9607 22.0001C40.4869 22.7401 39.8133 23.3169 39.0253 23.6575C38.2373 23.9981 37.3702 24.0872 36.5337 23.9135C35.6971 23.7399 34.9287 23.3113 34.3256 22.682C33.7225 22.0526 33.3118 21.2508 33.1454 20.3779C32.979 19.505 33.0644 18.6002 33.3908 17.7779C33.7172 16.9557 34.2699 16.2529 34.9791 15.7584C35.6883 15.2639 36.5221 15 37.375 15C37.9413 15 38.5021 15.1164 39.0253 15.3425C39.5485 15.5687 40.024 15.9002 40.4244 16.318C40.8249 16.7359 41.1425 17.232 41.3592 17.7779C41.576 18.3239 41.6875 18.9091 41.6875 19.5ZM8.625 24C7.77207 24 6.93829 23.7361 6.22911 23.2416C5.51992 22.7471 4.96717 22.0443 4.64077 21.2221C4.31437 20.3998 4.22897 19.495 4.39537 18.6221C4.56176 17.7492 4.97249 16.9474 5.5756 16.318C6.17872 15.6887 6.94713 15.2601 7.78368 15.0865C8.62022 14.9128 9.48732 15.0019 10.2753 15.3425C11.0633 15.6831 11.7369 16.2599 12.2107 16.9999C12.6846 17.74 12.9375 18.61 12.9375 19.5C12.9375 20.091 12.826 20.6761 12.6092 21.2221C12.3925 21.768 12.0749 22.2641 11.6744 22.682C11.274 23.0998 10.7985 23.4313 10.2753 23.6575C9.75211 23.8836 9.19133 24 8.625 24ZM12.9375 10.5C12.9375 9.60999 13.1904 8.73996 13.6643 7.99994C14.1382 7.25991 14.8117 6.68314 15.5997 6.34254C16.3877 6.00195 17.2548 5.91283 18.0913 6.08647C18.9279 6.2601 19.6963 6.68868 20.2994 7.31802C20.9025 7.94736 21.3132 8.74918 21.4796 9.6221C21.646 10.495 21.5606 11.3998 21.2342 12.2221C20.9078 13.0443 20.3551 13.7471 19.6459 14.2416C18.9367 14.7361 18.1029 15 17.25 15C16.6837 15 16.1229 14.8836 15.5997 14.6575C15.0765 14.4313 14.6011 14.0998 14.2006 13.682C13.8001 13.2641 13.4825 12.768 13.2658 12.2221C13.049 11.6761 12.9375 11.091 12.9375 10.5ZM24.4375 10.5C24.4375 9.60999 24.6904 8.73996 25.1643 7.99994C25.6382 7.25991 26.3117 6.68314 27.0997 6.34254C27.8877 6.00195 28.7548 5.91283 29.5913 6.08647C30.4279 6.2601 31.1963 6.68868 31.7994 7.31802C32.4025 7.94736 32.8132 8.74918 32.9796 9.6221C33.146 10.495 33.0606 11.3998 32.7342 12.2221C32.4078 13.0443 31.8551 13.7471 31.1459 14.2416C30.4367 14.7361 29.6029 15 28.75 15C28.1837 15 27.6229 14.8836 27.0997 14.6575C26.5765 14.4313 26.1011 14.0998 25.7006 13.682C25.3001 13.2641 24.9825 12.768 24.7658 12.2221C24.549 11.6761 24.4375 11.091 24.4375 10.5Z" fill="black"/>
</svg>
