<svg width="61" height="55" viewBox="0 0 61 55" fill="none" xmlns="http://www.w3.org/2000/svg">
<g filter="url(#filter0_d_2336_101)">
<path d="M41.6222 0H19.4042C9.75337 0 4 5.0995 4 13.6535V33.323C4 41.9005 9.75337 47 19.4042 47H41.5957C51.2465 47 56.9999 41.9005 56.9999 33.3465V13.6535C57.0264 5.0995 51.2731 0 41.6222 0ZM30.5132 37.6235C22.1085 37.6235 15.2681 31.5605 15.2681 24.111C15.2681 21.432 16.1431 18.8235 17.8399 16.6145C18.4497 15.792 19.6958 15.5805 20.5973 16.121C21.4987 16.6615 21.7639 17.766 21.1275 18.565C19.9079 20.21 19.2451 22.137 19.2451 24.111C19.2451 29.61 24.3091 34.0985 30.5132 34.0985C36.7173 34.0985 41.7813 29.61 41.7813 24.111C41.7813 18.612 36.7173 14.1235 30.5132 14.1235C30.0095 14.1235 29.5322 14.1705 29.0285 14.2175L30.5132 15.181C31.3881 15.745 31.6003 16.8495 30.9374 17.6485C30.5397 18.1185 29.9299 18.377 29.3201 18.377C28.9224 18.377 28.4982 18.2595 28.1535 18.048L23.01 14.6875C23.01 14.6875 22.9835 14.664 22.9569 14.6405C22.9304 14.617 22.9039 14.617 22.8774 14.5935C22.7979 14.5465 22.7714 14.4525 22.6918 14.382C22.6123 14.288 22.5327 14.2175 22.4532 14.1C22.4002 14.006 22.3737 13.8885 22.3206 13.7945C22.2941 13.677 22.2411 13.583 22.2411 13.4655C22.2411 13.348 22.2411 13.254 22.2676 13.1365C22.2676 13.019 22.2676 12.925 22.3206 12.8075C22.3206 12.69 22.4002 12.596 22.4532 12.4785C22.5062 12.408 22.5062 12.314 22.5858 12.22C22.6123 12.22 22.6388 12.1965 22.6653 12.173C22.6918 12.1495 22.6918 12.126 22.7183 12.1025L27.146 7.614C27.8619 6.8855 29.1345 6.7915 29.9564 7.4495C30.7783 8.084 30.8579 9.212 30.142 9.9405L29.3997 10.6925C29.7708 10.669 30.142 10.622 30.5397 10.622C38.9444 10.622 45.7848 16.685 45.7848 24.1345C45.7848 31.584 38.9179 37.6235 30.5132 37.6235Z" fill="#3D2302"/>
</g>
<defs>
<filter id="filter0_d_2336_101" x="0" y="0" width="61" height="55" filterUnits="userSpaceOnUse" color-interpolation-filters="sRGB">
<feFlood flood-opacity="0" result="BackgroundImageFix"/>
<feColorMatrix in="SourceAlpha" type="matrix" values="0 0 0 0 0 0 0 0 0 0 0 0 0 0 0 0 0 0 127 0" result="hardAlpha"/>
<feOffset dy="4"/>
<feGaussianBlur stdDeviation="2"/>
<feComposite in2="hardAlpha" operator="out"/>
<feColorMatrix type="matrix" values="0 0 0 0 0 0 0 0 0 0 0 0 0 0 0 0 0 0 0.25 0"/>
<feBlend mode="normal" in2="BackgroundImageFix" result="effect1_dropShadow_2336_101"/>
<feBlend mode="normal" in="SourceGraphic" in2="effect1_dropShadow_2336_101" result="shape"/>
</filter>
</defs>
</svg>
