<svg width="59" height="57" viewBox="0 0 59 57" fill="none" xmlns="http://www.w3.org/2000/svg">
<g filter="url(#filter0_d_2336_81)">
<path d="M29.5 0C15.424 0 4 10.976 4 24.5C4 38.024 15.424 49 29.5 49C43.576 49 55 38.024 55 24.5C55 10.976 43.576 0 29.5 0ZM15.73 22.6135C16.1635 19.698 17.515 17.0765 19.6315 15.0185C24.7315 10.143 32.764 9.8735 38.221 14.1365V11.809C38.221 10.8045 39.088 9.9715 40.1335 9.9715C41.179 9.9715 42.046 10.8045 42.046 11.809V18.3505C42.046 19.355 41.179 20.188 40.1335 20.188H33.325C32.2795 20.188 31.4125 19.355 31.4125 18.3505C31.4125 17.346 32.2795 16.513 33.325 16.513H35.2375C31.285 13.867 25.828 14.2345 22.309 17.6155C20.779 19.0855 19.81 20.9965 19.4785 23.128C19.351 24.0345 18.535 24.696 17.5915 24.696C17.4895 24.696 17.413 24.696 17.311 24.6715C16.3165 24.549 15.577 23.618 15.73 22.6135ZM39.3685 33.9815C36.64 36.603 33.07 37.9015 29.5 37.9015C26.389 37.9015 23.3035 36.848 20.7535 34.8635V37.1665C20.7535 38.171 19.8865 39.004 18.841 39.004C17.7955 39.004 16.9285 38.171 16.9285 37.1665V30.625C16.9285 29.6205 17.7955 28.7875 18.841 28.7875H25.6495C26.695 28.7875 27.562 29.6205 27.562 30.625C27.562 31.6295 26.695 32.4625 25.6495 32.4625H23.737C27.6895 35.1085 33.1465 34.741 36.6655 31.36C38.1955 29.89 39.1645 27.979 39.496 25.8475C39.649 24.843 40.5925 24.1325 41.6635 24.2795C42.709 24.4265 43.423 25.3575 43.2955 26.362C42.8365 29.3265 41.485 31.948 39.3685 33.9815Z" fill="#3D2302"/>
</g>
<defs>
<filter id="filter0_d_2336_81" x="0" y="0" width="59" height="57" filterUnits="userSpaceOnUse" color-interpolation-filters="sRGB">
<feFlood flood-opacity="0" result="BackgroundImageFix"/>
<feColorMatrix in="SourceAlpha" type="matrix" values="0 0 0 0 0 0 0 0 0 0 0 0 0 0 0 0 0 0 127 0" result="hardAlpha"/>
<feOffset dy="4"/>
<feGaussianBlur stdDeviation="2"/>
<feComposite in2="hardAlpha" operator="out"/>
<feColorMatrix type="matrix" values="0 0 0 0 0 0 0 0 0 0 0 0 0 0 0 0 0 0 0.25 0"/>
<feBlend mode="normal" in2="BackgroundImageFix" result="effect1_dropShadow_2336_81"/>
<feBlend mode="normal" in="SourceGraphic" in2="effect1_dropShadow_2336_81" result="shape"/>
</filter>
</defs>
</svg>
