<svg width="40" height="40" viewBox="0 0 40 40" fill="none" xmlns="http://www.w3.org/2000/svg">
<path d="M19.8793 0C13.0382 0 7.96781 1.3 4.74849 3.3C1.52917 5.3 0.402415 7.8 0 9.7L8.04829 10.35C8.37022 9.1 9.01408 7.85 10.5433 6.9C12.0724 5.95 14.4869 5 19.8793 5C25.1911 5 28.0885 5.8 29.6982 6.7C31.3078 7.6 31.9517 8.7 31.9517 10C31.9517 14.15 29.2153 15.3 25.1911 17.5C21.167 19.7 15.8551 22.9 15.8551 28.75V30H23.9034V28.75C23.9034 24.6 26.3984 23.45 30.4225 21.25C34.4467 19.05 40 15.85 40 10C40 7.6 38.6318 4.9 35.2515 2.95C31.7907 1 26.6398 0 19.8793 0ZM15.8551 35V40H23.9034V35H15.8551Z" fill="#847070"/>
</svg>
