<svg width="100" height="104" viewBox="0 0 100 104" fill="none" xmlns="http://www.w3.org/2000/svg">
<path d="M98.0196 64.1688L89.1612 59.0534C90.0554 54.2291 90.0554 49.2801 89.1612 44.4558L98.0196 39.3404C99.0385 38.7582 99.496 37.5521 99.1633 36.4292C96.8551 29.0264 92.925 22.3307 87.7888 16.7578C86.9986 15.9052 85.7094 15.6973 84.7112 16.2795L75.8529 21.3949C72.1307 18.1926 67.8471 15.7181 63.2099 14.0961V3.88611C63.2099 2.72163 62.399 1.70271 61.2553 1.45318C53.6238 -0.251957 45.8051 -0.16878 38.5479 1.45318C37.4042 1.70271 36.5932 2.72163 36.5932 3.88611V14.1169C31.9769 15.7597 27.6933 18.2342 23.9503 21.4157L15.1127 16.3003C14.0938 15.7181 12.8253 15.9052 12.0352 16.7786C6.89897 22.3307 2.96885 29.0264 0.660685 36.45C0.307182 37.5729 0.785451 38.7789 1.80437 39.3612L10.6627 44.4766C9.76859 49.3009 9.76859 54.2499 10.6627 59.0742L1.80437 64.1896C0.785451 64.7718 0.327976 65.9779 0.660685 67.1008C2.96885 74.5036 6.89897 81.1993 12.0352 86.7722C12.8253 87.6248 14.1146 87.8327 15.1127 87.2505L23.9711 82.1351C27.6933 85.3374 31.9769 87.8119 36.614 89.4339V99.6647C36.614 100.829 37.425 101.848 38.5687 102.098C46.2002 103.803 54.0189 103.72 61.2761 102.098C62.4198 101.848 63.2307 100.829 63.2307 99.6647V89.4339C67.8471 87.7911 72.1307 85.3166 75.8737 82.1351L84.732 87.2505C85.751 87.8327 87.0194 87.6456 87.8096 86.7722C92.9458 81.2201 96.8759 74.5243 99.1841 67.1008C99.496 65.9571 99.0385 64.751 98.0196 64.1688ZM49.9016 68.39C40.7313 68.39 33.2661 60.9249 33.2661 51.7546C33.2661 42.5843 40.7313 35.1191 49.9016 35.1191C59.0719 35.1191 66.537 42.5843 66.537 51.7546C66.537 60.9249 59.0719 68.39 49.9016 68.39Z" fill="black"/>
</svg>
