<svg width="497" height="373" viewBox="0 0 497 373" fill="none" xmlns="http://www.w3.org/2000/svg">
<path d="M208.331 6.82636L122.133 93.0054H23.2524C10.4054 93.0054 0 103.411 0 116.258V255.772C0 268.609 10.4054 279.024 23.2524 279.024H122.133L208.331 365.203C222.893 379.765 248.025 369.534 248.025 348.762V23.2677C248.025 2.47622 222.874 -7.71606 208.331 6.82636ZM447.259 186.015L491.477 141.797C497.581 135.693 497.581 125.791 491.477 119.687L469.368 97.5784C463.265 91.4746 453.363 91.4746 447.259 97.5784L403.041 141.797L358.823 97.5784C352.719 91.4746 342.817 91.4746 336.714 97.5784L314.604 119.687C308.501 125.791 308.501 135.693 314.604 141.797L358.823 186.015L314.614 230.223C308.51 236.327 308.51 246.229 314.614 252.333L336.723 274.442C342.827 280.545 352.729 280.545 358.832 274.442L403.041 230.233L447.259 274.451C453.363 280.555 463.265 280.555 469.368 274.451L491.477 252.342C497.581 246.238 497.581 236.337 491.477 230.233L447.259 186.015Z" fill="black"/>
</svg>
