<svg width="497" height="414" viewBox="0 0 497 414" fill="none" xmlns="http://www.w3.org/2000/svg">
<path d="M185.185 47.4134L108.564 124.018H20.669C9.24936 124.018 0 133.267 0 144.687V268.701C0 280.112 9.24936 289.37 20.669 289.37H108.564L185.185 365.974C198.129 378.918 220.469 369.824 220.469 351.359V62.0281C220.469 43.5466 198.112 34.4867 185.185 47.4134ZM386.122 3.42298C376.502 -2.88966 363.576 -0.228534 357.263 9.40837C350.942 19.0281 353.629 31.9548 363.248 38.2674C420.321 75.7213 454.381 138.684 454.381 206.702C454.381 274.72 420.321 337.683 363.248 375.137C353.629 381.441 350.942 394.377 357.263 403.988C363.326 413.211 376.149 416.527 386.122 409.973C454.95 364.794 496.055 288.793 496.055 206.694C496.055 124.595 454.95 48.6019 386.122 3.42298ZM413.379 206.694C413.379 151.981 385.769 101.678 339.514 72.1387C329.877 65.9897 317.096 68.8489 310.99 78.5633C304.884 88.2777 307.735 101.136 317.372 107.293C351.605 129.159 372.041 166.312 372.041 206.694C372.041 247.076 351.605 284.228 317.372 306.094C307.735 312.243 304.884 325.101 310.99 334.824C316.597 343.746 329.179 347.863 339.514 341.249C385.769 311.709 413.379 261.415 413.379 206.694ZM291.286 140.493C281.313 135.041 268.731 138.632 263.202 148.631C257.699 158.63 261.342 171.195 271.34 176.715C282.459 182.821 289.366 194.318 289.366 206.694C289.366 219.078 282.459 230.566 271.349 236.672C261.35 242.193 257.708 254.758 263.211 264.756C268.748 274.798 281.339 278.363 291.295 272.895C315.607 259.503 330.712 234.14 330.712 206.685C330.712 179.23 315.607 153.876 291.286 140.493Z" fill="black"/>
</svg>
